<svg xmlns="http://www.w3.org/2000/svg" width="12" height="12" viewBox="8 10 12 10" fill="none">
  <path d="M10.9144 18.7311C10.5915 18.7311 10.3151 18.4997 10.2582 18.1818L9.51581 14.0339C9.47315 13.7956 9.7446 13.6283 9.9383 13.7736L11.6908 15.088C12.0068 15.3251 12.4585 15.2369 12.6621 14.8984L13.978 12.7109C14.0816 12.5386 14.3314 12.5386 14.435 12.7109L15.7496 14.8962C15.9537 15.2355 16.4067 15.3232 16.7227 15.0846L18.4562 13.7753C18.6494 13.6294 18.9214 13.7956 18.8796 14.0341L18.1532 18.1795C18.0973 18.4984 17.8203 18.7311 17.4965 18.7311H10.9144Z" fill="#56CDAF"/>
  <path d="M19.7973 12.5944C19.7973 13.0363 19.4391 13.3944 18.9973 13.3944C18.5554 13.3944 18.1973 13.0363 18.1973 12.5944C18.1973 12.1526 18.5554 11.7944 18.9973 11.7944C19.4391 11.7944 19.7973 12.1526 19.7973 12.5944Z" fill="#56CDAF"/>
  <path d="M10.1977 12.5979C10.1977 13.0397 9.83948 13.3979 9.39766 13.3979C8.95583 13.3979 8.59766 13.0397 8.59766 12.5979C8.59766 12.156 8.95583 11.7979 9.39766 11.7979C9.83948 11.7979 10.1977 12.156 10.1977 12.5979Z" fill="#56CDAF"/>
  <path d="M14.9965 11.2612C14.9965 11.703 14.6383 12.0612 14.1965 12.0612C13.7547 12.0612 13.3965 11.703 13.3965 11.2612C13.3965 10.8194 13.7547 10.4612 14.1965 10.4612C14.6383 10.4612 14.9965 10.8194 14.9965 11.2612Z" fill="#56CDAF"/>
</svg>
