<svg width="210" height="183" viewBox="0 0 210 183" fill="none" xmlns="http://www.w3.org/2000/svg">
<path d="M43.9027 181.977C44.1601 172.055 49.5177 150.316 68.8893 142.739C93.1038 133.268 125.127 155.142 157.316 136.909C189.506 118.677 159.643 98.06 151.24 106.828C142.838 115.597 167.061 131.568 186.395 111.831C201.862 96.0421 201.291 82.6843 199.072 77.979" stroke="#787878" stroke-linecap="round" stroke-dasharray="4 4"/>
<path d="M30.9584 35.97C21.023 39.4699 13.5382 50.9702 17.0195 56.9701C21.4819 64.6611 29.0233 52.7708 19.6607 51.7486C12.5231 50.9693 6.59523 58.377 5.99054 63.1633" stroke="#787878" stroke-dasharray="4 4"/>
<circle cx="207.023" cy="40.9697" r="2" fill="#56CDAF"/>
<circle cx="68.0234" cy="171.97" r="3" fill="#9EE2D1"/>
<circle cx="192.023" cy="51.9697" r="5" fill="#E7FAF6"/>
<circle cx="20.0234" cy="115.97" r="6" fill="#E7FAF6"/>
<path d="M78.6562 126.334L60.8687 136.776L66.9712 115.263L78.6562 126.334Z" fill="#56CDAF"/>
<path d="M142.657 45.4259C146.5 44.2806 150.026 47.9679 148.71 51.7565L117.676 141.088C114.704 149.643 103.818 152.163 97.3899 145.783L40.3699 89.1946C35.7297 84.5896 37.7116 76.6967 43.9768 74.8298L142.657 45.4259Z" fill="#E7FAF6"/>
<path d="M55.2812 104.191L134.503 57.8955C135.354 57.3981 136.176 58.5804 135.413 59.2051L66.9679 115.263L61.642 136.083C61.3364 137.277 59.6067 137.173 59.4464 135.951L55.2812 104.191Z" fill="#9EE2D1"/>
</svg>
