<svg xmlns="http://www.w3.org/2000/svg" width="12" height="12" viewBox="9.5 9 9.5 9.5" fill="none">
  <path d="M14.0106 10.0114C14.0281 9.97425 14.0552 9.94299 14.0887 9.92113C14.1223 9.89928 14.161 9.8877 14.2006 9.8877C14.2401 9.8877 14.2788 9.89928 14.3124 9.92113C14.3459 9.94299 14.373 9.97425 14.3905 10.0114L15.3145 11.9741C15.3752 12.1033 15.4651 12.2151 15.5762 12.2999C15.6873 12.3846 15.8164 12.4398 15.9524 12.4606L18.0186 12.7777C18.0578 12.7837 18.0945 12.801 18.1248 12.8277C18.155 12.8545 18.1776 12.8895 18.1898 12.929C18.202 12.9685 18.2035 13.0107 18.194 13.051C18.1846 13.0913 18.1645 13.128 18.1362 13.1569L16.6419 14.6829C16.5433 14.7836 16.4695 14.9079 16.4269 15.0451C16.3844 15.1824 16.3743 15.3284 16.3976 15.4707L16.7503 17.6267C16.7572 17.6678 16.753 17.71 16.7381 17.7486C16.7232 17.7873 16.6983 17.8208 16.6661 17.8453C16.634 17.8697 16.5959 17.8843 16.5563 17.8872C16.5166 17.8901 16.477 17.8812 16.442 17.8616L14.5949 16.8432C14.4732 16.7761 14.3378 16.741 14.2004 16.741C14.0629 16.741 13.9275 16.7761 13.8058 16.8432L11.9592 17.8616C11.9241 17.8811 11.8845 17.8898 11.8449 17.8869C11.8054 17.8839 11.7674 17.8694 11.7353 17.8449C11.7032 17.8205 11.6783 17.787 11.6634 17.7485C11.6486 17.7099 11.6443 17.6677 11.6512 17.6267L12.0036 15.4711C12.0269 15.3288 12.0168 15.1827 11.9743 15.0453C11.9317 14.908 11.8579 14.7836 11.7592 14.6829L10.2649 13.1574C10.2363 13.1284 10.2161 13.0917 10.2065 13.0513C10.1969 13.0109 10.1983 12.9684 10.2105 12.9288C10.2228 12.8892 10.2454 12.854 10.2758 12.8272C10.3062 12.8004 10.3432 12.7832 10.3825 12.7773L12.4483 12.4606C12.5844 12.4399 12.7137 12.3848 12.825 12.3001C12.9363 12.2153 13.0262 12.1034 13.0871 11.9741L14.0106 10.0114Z" fill="#A372CD" stroke="#A372CD" stroke-width="1.33333" stroke-linecap="round" stroke-linejoin="round"/>
</svg>
